<svg xmlns="http://www.w3.org/2000/svg" width="37" height="37" viewBox="0 0 37 37">
  <g id="Group_200" data-name="Group 200" transform="translate(-780 -512)">
    <circle id="Ellipse_6" data-name="Ellipse 6" cx="18.5" cy="18.5" r="18.5" transform="translate(780 512)" fill="#E47B3C"/>
    <g id="round-model-training" transform="translate(782.284 515.578)">
      <path id="Path_195" data-name="Path 195" d="M19.615,16.258c0,2.178-2.723,3.812-2.723,5.445H14.714c0-1.634-2.723-3.267-2.723-5.445a3.812,3.812,0,0,1,7.623,0Zm-2.723,6.534H14.714v.545a1.089,1.089,0,0,0,2.178,0Zm6.534-7.079a7.521,7.521,0,0,1-1.22,4.117,1.091,1.091,0,0,0,1.83,1.187A9.782,9.782,0,0,0,22.991,9.049a1.09,1.09,0,1,0-1.6,1.481,7.591,7.591,0,0,1,2.037,5.184ZM19.778,6.62,16.74,3.582a.546.546,0,0,0-.937.381V5.912A9.8,9.8,0,0,0,7.57,21.028a1.09,1.09,0,0,0,1.677.163,1.073,1.073,0,0,0,.152-1.34,7.991,7.991,0,0,1,.142-8.712A6.674,6.674,0,0,1,15.8,8.091V10.04a.539.539,0,0,0,.926.381l3.038-3.038a.536.536,0,0,0,.011-.762Z"/>
    </g>
  </g>
</svg>
