<!DOCTYPE svg PUBLIC "-//W3C//DTD SVG 1.1//EN" "http://www.w3.org/Graphics/SVG/1.1/DTD/svg11.dtd">
<!-- Uploaded to: SVG Repo, www.svgrepo.com, Transformed by: SVG Repo Mixer Tools -->
<svg width="120px" height="120px" viewBox="0 0 48.00 48.00" xmlns="http://www.w3.org/2000/svg" fill="#999999" stroke="#999999" stroke-width="0.00048000000000000007">
<g id="SVGRepo_bgCarrier" stroke-width="0"/>
<g id="SVGRepo_tracerCarrier" stroke-linecap="round" stroke-linejoin="round"/>
<g id="SVGRepo_iconCarrier"> <title>calendar-event-solid</title> <g id="Layer_2" data-name="Layer 2"> <g id="invisible_box" data-name="invisible box"> <rect width="48" height="48" fill="none"/> </g> <g id="icons_Q2" data-name="icons Q2"> <path d="M44,8H35V4.1A2.1,2.1,0,0,0,33.3,2,2,2,0,0,0,31,4V8H17V4.1A2.1,2.1,0,0,0,15.3,2,2,2,0,0,0,13,4V8H4a2,2,0,0,0-2,2v6H46V10A2,2,0,0,0,44,8ZM2,20V42a2,2,0,0,0,2,2H44a2,2,0,0,0,2-2V20ZM38,34a2,2,0,0,1-2,2H32a2,2,0,0,1-2-2V30a2,2,0,0,1,2-2h4a2,2,0,0,1,2,2Z"/> </g> </g> </g>
</svg>