<svg xmlns="http://www.w3.org/2000/svg" x="0px" y="0px" width="25" height="25" viewBox="0,0,256,256"
style="fill:#000000;">
<g transform="translate(44.8,44.8) scale(0.65,0.65)"><g fill="#ffffff" fill-rule="nonzero" stroke="none" stroke-width="1" stroke-linecap="butt" stroke-linejoin="miter" stroke-miterlimit="10" stroke-dasharray="" stroke-dashoffset="0" font-family="none" font-weight="none" font-size="none" text-anchor="none" style="mix-blend-mode: normal"><path d="M-68.92308,324.92308v-393.84615h393.84615v393.84615z" id="bgRectangle"></path></g><g fill="none" fill-rule="nonzero" stroke="#000000" stroke-width="10.66667" stroke-linecap="butt" stroke-linejoin="miter" stroke-miterlimit="10" stroke-dasharray="" stroke-dashoffset="0" font-family="none" font-weight="none" font-size="none" text-anchor="none" style="mix-blend-mode: normal"><path d="M128,317.97704c-104.92142,0 -189.97704,-85.05562 -189.97704,-189.97704v0c0,-104.92142 85.05562,-189.97704 189.97704,-189.97704v0c104.92142,0 189.97704,85.05562 189.97704,189.97704v0c0,104.92142 -85.05562,189.97704 -189.97704,189.97704z" id="shape"></path></g><g fill="#000000" fill-rule="nonzero" stroke="none" stroke-width="1" stroke-linecap="butt" stroke-linejoin="miter" stroke-miterlimit="10" stroke-dasharray="" stroke-dashoffset="0" font-family="none" font-weight="none" font-size="none" text-anchor="none" style="mix-blend-mode: normal"><g transform="scale(10.66667,10.66667)"><path d="M2.36719,3l7.0957,10.14063l-6.72266,7.85938h2.64063l5.26367,-6.16992l4.31641,6.16992h6.91016l-7.42187,-10.625l6.29102,-7.375h-2.59961l-4.86914,5.6875l-3.97266,-5.6875zM6.20703,5h2.04883l9.77734,14h-2.03125z"></path></g></g></g>
</svg>